<?xml version="1.0" encoding="UTF-8" standalone="no"?>
<svg width="226.483mm" height="170.039mm"
 viewBox="0 0 642 482"
 xmlns="http://www.w3.org/2000/svg" xmlns:xlink="http://www.w3.org/1999/xlink"  version="1.2" baseProfile="tiny">
<title>Qt SVG Document</title>
<desc>Generated with Qt</desc>
<defs>
</defs>
<g fill="none" stroke="black" stroke-width="1" fill-rule="evenodd" stroke-linecap="square" stroke-linejoin="bevel" >

<g fill="none" stroke="#000000" stroke-opacity="1" stroke-width="1" stroke-linecap="square" stroke-linejoin="bevel" transform="matrix(1,0,0,1,0,0)"
font-family="Sans Serif" font-size="9" font-weight="400" font-style="normal" 
>
</g>

<g fill="none" stroke="#000000" stroke-opacity="1" stroke-width="1" stroke-linecap="square" stroke-linejoin="bevel" transform="matrix(1.00313,0,0,1.00313,0,0)"
font-family="Sans Serif" font-size="9" font-weight="400" font-style="normal" 
>
</g>

<g fill="none" stroke="#000000" stroke-opacity="1" stroke-width="1" stroke-linecap="square" stroke-linejoin="bevel" transform="matrix(1.00313,0,0,1.00313,0,0)"
font-family="Sans Serif" font-size="9" font-weight="400" font-style="normal" 
>
</g>

<g fill="none" stroke="#000000" stroke-opacity="1" stroke-width="1" stroke-linecap="square" stroke-linejoin="bevel" transform="matrix(1.00313,0,0,1.00313,0,0)"
font-family="Sans Serif" font-size="9" font-weight="400" font-style="normal" 
>
</g>

<g fill="none" stroke="#9400d3" stroke-opacity="1" stroke-width="1" stroke-linecap="round" stroke-linejoin="round" transform="matrix(1.00313,0,0,1.00313,0,0)"
font-family="Sans Serif" font-size="9" font-weight="400" font-style="normal" 
>
<polyline fill="none" vector-effect="none" points="17.5,416.8 17.5,416.8 23.6,411 29.6,407.3 35.7,407 41.8,410.7 47.9,416.5 53.9,420.6 60,416.4 66.1,402.9 72.2,383.5 78.2,359.7 84.3,331.3 90.4,297.7 96.5,262.9 102.5,231.7 108.6,205.1 114.7,182.1 120.8,161.6 126.8,145.3 132.9,133.4 139,124.4 145.1,120.8 151.1,123.6 157.2,128.4 163.3,133.5 169.4,139.9 175.4,148.1 181.5,157.2 187.6,165 193.7,168.5 199.7,166.3 205.8,159.7 211.9,152.4 218,148.6 224,149.2 230.1,154.2 236.2,162.6 242.3,171.4 248.3,178.2 254.4,182.6 260.5,187.5 266.6,196 272.6,206.5 278.7,218.4 284.8,232.3 290.9,246.2 296.9,257.6 303,264.7 309.1,266.4 315.2,262 321.2,250.6 327.3,232.2 333.4,208.1 339.5,181.8 345.5,157.3 351.6,137.4 357.7,122.2 363.8,110.6 369.8,101.8 375.9,95 382,90 388.1,87 394.1,87.3 400.2,93 406.3,104.8 412.4,121.9 418.4,142.1 424.5,161.8 430.6,177 436.7,185.4 442.7,187.2 448.8,185.3 454.9,183 461,183.4 467,189.2 473.1,199.6 479.2,211.8 485.3,226.3 491.3,242.9 497.4,259 503.5,274.1 509.6,288.9 515.6,304.8 521.7,321.6 527.8,336.7 533.9,343.5 539.9,337 546,316.6 552.1,285.5 558.2,248.9 564.2,211.5 570.3,176.7 576.4,145.8 582.5,117.3 588.5,91.3 594.6,70.9 600.7,54.8 606.8,40.7 612.8,27.7 618.9,15.1 " />
</g>

<g fill="none" stroke="#000000" stroke-opacity="1" stroke-width="1" stroke-linecap="square" stroke-linejoin="bevel" transform="matrix(1.00313,0,0,1.00313,0,0)"
font-family="Sans Serif" font-size="9" font-weight="400" font-style="normal" 
>
</g>

<g fill="none" stroke="#000000" stroke-opacity="1" stroke-width="1" stroke-linecap="square" stroke-linejoin="bevel" transform="matrix(1,0,0,1,0,0)"
font-family="Sans Serif" font-size="9" font-weight="400" font-style="normal" 
>
</g>
</g>
</svg>
