<?xml version="1.0" encoding="UTF-8" standalone="no"?>
<svg width="226.483mm" height="170.039mm"
 viewBox="0 0 642 482"
 xmlns="http://www.w3.org/2000/svg" xmlns:xlink="http://www.w3.org/1999/xlink"  version="1.2" baseProfile="tiny">
<title>Qt SVG Document</title>
<desc>Generated with Qt</desc>
<defs>
</defs>
<g fill="none" stroke="black" stroke-width="1" fill-rule="evenodd" stroke-linecap="square" stroke-linejoin="bevel" >

<g fill="none" stroke="#000000" stroke-opacity="1" stroke-width="1" stroke-linecap="square" stroke-linejoin="bevel" transform="matrix(1,0,0,1,0,0)"
font-family="Sans Serif" font-size="9" font-weight="400" font-style="normal" 
>
</g>

<g fill="none" stroke="#000000" stroke-opacity="1" stroke-width="1" stroke-linecap="square" stroke-linejoin="bevel" transform="matrix(1.00313,0,0,1.00313,0,0)"
font-family="Sans Serif" font-size="9" font-weight="400" font-style="normal" 
>
</g>

<g fill="none" stroke="#000000" stroke-opacity="1" stroke-width="1" stroke-linecap="square" stroke-linejoin="bevel" transform="matrix(1.00313,0,0,1.00313,0,0)"
font-family="Sans Serif" font-size="9" font-weight="400" font-style="normal" 
>
</g>

<g fill="none" stroke="#000000" stroke-opacity="1" stroke-width="1" stroke-linecap="square" stroke-linejoin="bevel" transform="matrix(1.00313,0,0,1.00313,0,0)"
font-family="Sans Serif" font-size="9" font-weight="400" font-style="normal" 
>
</g>

<g fill="none" stroke="#9400d3" stroke-opacity="1" stroke-width="1" stroke-linecap="round" stroke-linejoin="round" transform="matrix(1.00313,0,0,1.00313,0,0)"
font-family="Sans Serif" font-size="9" font-weight="400" font-style="normal" 
>
<polyline fill="none" vector-effect="none" points="17.5,402.4 17.5,402.4 23.6,405.2 29.6,379.3 35.7,384 41.8,342.4 47.9,308 53.9,290 60,305.9 66.1,322.7 72.2,325.3 78.2,298.7 84.3,288.2 90.4,276.1 96.5,243.7 102.5,226.9 108.6,245.7 114.7,277.1 120.8,287 126.8,286 132.9,291.8 139,291.7 145.1,292.2 151.1,308 157.2,329.5 163.3,331.5 169.4,312.7 175.4,303.8 181.5,320.5 187.6,342 193.7,346.4 199.7,334.3 205.8,313.5 211.9,293 218,279.5 224,279.1 230.1,287.3 236.2,290.6 242.3,287.8 248.3,290.2 254.4,303.9 260.5,321.4 266.6,333.7 272.6,346.3 278.7,361.2 284.8,367.7 290.9,366.3 296.9,366.5 303,365.8 309.1,360.6 315.2,351.5 321.2,335.9 327.3,315.8 333.4,300.1 339.5,294.6 345.5,295.3 351.6,293.3 357.7,284.7 363.8,271.6 369.8,253.4 375.9,227.2 382,197.3 388.1,170.6 394.1,150 400.2,144.5 406.3,162.3 412.4,192.9 418.4,214.4 424.5,218.7 430.6,216.1 436.7,221.5 442.7,235.2 448.8,241.7 454.9,235 461,215.6 467,182.6 473.1,142.4 479.2,105.4 485.3,79.6 491.3,63.9 497.4,51 503.5,43.6 509.6,56.1 515.6,100.9 521.7,141.6 527.8,163.2 533.9,184.2 539.9,205.7 546,225.7 552.1,247.6 558.2,274.3 564.2,270.7 570.3,235.3 576.4,196.7 582.5,191.8 588.5,192 594.6,154.2 600.7,96.9 606.8,91.8 612.8,122.9 618.9,71.2 " />
</g>

<g fill="none" stroke="#000000" stroke-opacity="1" stroke-width="1" stroke-linecap="square" stroke-linejoin="bevel" transform="matrix(1.00313,0,0,1.00313,0,0)"
font-family="Sans Serif" font-size="9" font-weight="400" font-style="normal" 
>
</g>

<g fill="none" stroke="#000000" stroke-opacity="1" stroke-width="1" stroke-linecap="square" stroke-linejoin="bevel" transform="matrix(1,0,0,1,0,0)"
font-family="Sans Serif" font-size="9" font-weight="400" font-style="normal" 
>
</g>
</g>
</svg>
