<?xml version="1.0" encoding="UTF-8" standalone="no"?>
<svg width="226.483mm" height="170.039mm"
 viewBox="0 0 642 482"
 xmlns="http://www.w3.org/2000/svg" xmlns:xlink="http://www.w3.org/1999/xlink"  version="1.2" baseProfile="tiny">
<title>Qt SVG Document</title>
<desc>Generated with Qt</desc>
<defs>
</defs>
<g fill="none" stroke="black" stroke-width="1" fill-rule="evenodd" stroke-linecap="square" stroke-linejoin="bevel" >

<g fill="none" stroke="#000000" stroke-opacity="1" stroke-width="1" stroke-linecap="square" stroke-linejoin="bevel" transform="matrix(1,0,0,1,0,0)"
font-family="Sans Serif" font-size="9" font-weight="400" font-style="normal" 
>
</g>

<g fill="none" stroke="#000000" stroke-opacity="1" stroke-width="1" stroke-linecap="square" stroke-linejoin="bevel" transform="matrix(1.00313,0,0,1.00313,0,0)"
font-family="Sans Serif" font-size="9" font-weight="400" font-style="normal" 
>
</g>

<g fill="none" stroke="#000000" stroke-opacity="1" stroke-width="1" stroke-linecap="square" stroke-linejoin="bevel" transform="matrix(1.00313,0,0,1.00313,0,0)"
font-family="Sans Serif" font-size="9" font-weight="400" font-style="normal" 
>
</g>

<g fill="none" stroke="#000000" stroke-opacity="1" stroke-width="1" stroke-linecap="square" stroke-linejoin="bevel" transform="matrix(1.00313,0,0,1.00313,0,0)"
font-family="Sans Serif" font-size="9" font-weight="400" font-style="normal" 
>
</g>

<g fill="none" stroke="#9400d3" stroke-opacity="1" stroke-width="1" stroke-linecap="round" stroke-linejoin="round" transform="matrix(1.00313,0,0,1.00313,0,0)"
font-family="Sans Serif" font-size="9" font-weight="400" font-style="normal" 
>
<polyline fill="none" vector-effect="none" points="17.5,79.3 17.5,79.3 23.6,57.8 29.6,65.9 35.7,112.6 41.8,163.8 47.9,155.9 53.9,126.2 60,136.7 66.1,140.5 72.2,137.5 78.2,133.2 84.3,162.2 90.4,193.3 96.5,213.8 102.5,218.2 108.6,231.8 114.7,255.7 120.8,250.8 126.8,231.9 132.9,197.5 139,162.3 145.1,138.6 151.1,133.2 157.2,128.1 163.3,118.6 169.4,108.2 175.4,94.8 181.5,98.3 187.6,104.3 193.7,83.7 199.7,64.2 205.8,68.1 211.9,72.2 218,59.4 224,43.8 230.1,43.5 236.2,55.3 242.3,69.8 248.3,80.1 254.4,77.6 260.5,74.9 266.6,82.9 272.6,102.7 278.7,121.3 284.8,130.2 290.9,127.5 296.9,114.4 303,109.3 309.1,116.9 315.2,123.2 321.2,122.1 327.3,130.4 333.4,154.2 339.5,165.5 345.5,155.8 351.6,151.3 357.7,168.8 363.8,186.6 369.8,191.8 375.9,194.7 382,196.4 388.1,199.5 394.1,197.5 400.2,178.8 406.3,148.1 412.4,128.5 418.4,144.2 424.5,181.5 430.6,193.7 436.7,190.8 442.7,209.3 448.8,225.5 454.9,215 461,205.9 467,206.9 473.1,196.1 479.2,185.2 485.3,186.2 491.3,177.1 497.4,171.1 503.5,165.5 509.6,177.3 515.6,205 521.7,223.3 527.8,239 533.9,243.6 539.9,227.1 546,211.1 552.1,209.7 558.2,217.6 564.2,241.6 570.3,280 576.4,308.1 582.5,336.1 588.5,381.5 594.6,426.2 600.7,446.9 606.8,418.2 612.8,407.9 618.9,365 " />
</g>

<g fill="none" stroke="#000000" stroke-opacity="1" stroke-width="1" stroke-linecap="square" stroke-linejoin="bevel" transform="matrix(1.00313,0,0,1.00313,0,0)"
font-family="Sans Serif" font-size="9" font-weight="400" font-style="normal" 
>
</g>

<g fill="none" stroke="#000000" stroke-opacity="1" stroke-width="1" stroke-linecap="square" stroke-linejoin="bevel" transform="matrix(1,0,0,1,0,0)"
font-family="Sans Serif" font-size="9" font-weight="400" font-style="normal" 
>
</g>
</g>
</svg>
