<?xml version="1.0" encoding="UTF-8" standalone="no"?>
<svg width="226.483mm" height="170.039mm"
 viewBox="0 0 642 482"
 xmlns="http://www.w3.org/2000/svg" xmlns:xlink="http://www.w3.org/1999/xlink"  version="1.2" baseProfile="tiny">
<title>Qt SVG Document</title>
<desc>Generated with Qt</desc>
<defs>
</defs>
<g fill="none" stroke="black" stroke-width="1" fill-rule="evenodd" stroke-linecap="square" stroke-linejoin="bevel" >

<g fill="none" stroke="#000000" stroke-opacity="1" stroke-width="1" stroke-linecap="square" stroke-linejoin="bevel" transform="matrix(1,0,0,1,0,0)"
font-family="Sans Serif" font-size="9" font-weight="400" font-style="normal" 
>
</g>

<g fill="none" stroke="#000000" stroke-opacity="1" stroke-width="1" stroke-linecap="square" stroke-linejoin="bevel" transform="matrix(1.00313,0,0,1.00313,0,0)"
font-family="Sans Serif" font-size="9" font-weight="400" font-style="normal" 
>
</g>

<g fill="none" stroke="#000000" stroke-opacity="1" stroke-width="1" stroke-linecap="square" stroke-linejoin="bevel" transform="matrix(1.00313,0,0,1.00313,0,0)"
font-family="Sans Serif" font-size="9" font-weight="400" font-style="normal" 
>
</g>

<g fill="none" stroke="#000000" stroke-opacity="1" stroke-width="1" stroke-linecap="square" stroke-linejoin="bevel" transform="matrix(1.00313,0,0,1.00313,0,0)"
font-family="Sans Serif" font-size="9" font-weight="400" font-style="normal" 
>
</g>

<g fill="none" stroke="#9400d3" stroke-opacity="1" stroke-width="1" stroke-linecap="round" stroke-linejoin="round" transform="matrix(1.00313,0,0,1.00313,0,0)"
font-family="Sans Serif" font-size="9" font-weight="400" font-style="normal" 
>
<polyline fill="none" vector-effect="none" points="17.5,454.6 17.5,454.6 23.6,434.8 29.6,422.4 35.7,416.3 41.8,412.3 47.9,398.3 53.9,388.8 60,389.7 66.1,393.3 72.2,381.8 78.2,377.6 84.3,376.9 90.4,372.9 96.5,368.8 102.5,375.6 108.6,382.5 114.7,377.5 120.8,365.2 126.8,355.1 132.9,350.6 139,345.6 145.1,344.4 151.1,355.5 157.2,370.4 163.3,381.4 169.4,389.5 175.4,392.2 181.5,388.3 187.6,383.1 193.7,379 199.7,372.2 205.8,358.1 211.9,340.4 218,325.2 224,311 230.1,295.2 236.2,278.3 242.3,262 248.3,247.1 254.4,234.1 260.5,222.3 266.6,212.1 272.6,209.4 278.7,214.7 284.8,219.5 290.9,220.9 296.9,223.3 303,232.8 309.1,253.7 315.2,279.3 321.2,296.6 327.3,301.1 333.4,297.2 339.5,292.4 345.5,291 351.6,293.6 357.7,298.7 363.8,303.6 369.8,308 375.9,311.7 382,312.7 388.1,311.5 394.1,311.7 400.2,312.4 406.3,310 412.4,301.5 418.4,289.4 424.5,279 430.6,267.2 436.7,252.4 442.7,244 448.8,243.2 454.9,242.4 461,244.5 467,252.2 473.1,258.5 479.2,257.7 485.3,252.8 491.3,251.9 497.4,251.7 503.5,249.4 509.6,248.4 515.6,249.4 521.7,250.4 527.8,240.3 533.9,223.8 539.9,220.2 546,217.2 552.1,204.5 558.2,186.8 564.2,169.3 570.3,150 576.4,115.2 582.5,87.5 588.5,59.7 594.6,38 600.7,29 606.8,43.2 612.8,52.1 618.9,50.6 " />
</g>

<g fill="none" stroke="#000000" stroke-opacity="1" stroke-width="1" stroke-linecap="square" stroke-linejoin="bevel" transform="matrix(1.00313,0,0,1.00313,0,0)"
font-family="Sans Serif" font-size="9" font-weight="400" font-style="normal" 
>
</g>

<g fill="none" stroke="#000000" stroke-opacity="1" stroke-width="1" stroke-linecap="square" stroke-linejoin="bevel" transform="matrix(1,0,0,1,0,0)"
font-family="Sans Serif" font-size="9" font-weight="400" font-style="normal" 
>
</g>
</g>
</svg>
