<?xml version="1.0" encoding="UTF-8" standalone="no"?>
<svg width="226.483mm" height="170.039mm"
 viewBox="0 0 642 482"
 xmlns="http://www.w3.org/2000/svg" xmlns:xlink="http://www.w3.org/1999/xlink"  version="1.2" baseProfile="tiny">
<title>Qt SVG Document</title>
<desc>Generated with Qt</desc>
<defs>
</defs>
<g fill="none" stroke="black" stroke-width="1" fill-rule="evenodd" stroke-linecap="square" stroke-linejoin="bevel" >

<g fill="none" stroke="#000000" stroke-opacity="1" stroke-width="1" stroke-linecap="square" stroke-linejoin="bevel" transform="matrix(1,0,0,1,0,0)"
font-family="Sans Serif" font-size="9" font-weight="400" font-style="normal" 
>
</g>

<g fill="none" stroke="#000000" stroke-opacity="1" stroke-width="1" stroke-linecap="square" stroke-linejoin="bevel" transform="matrix(1.00313,0,0,1.00313,0,0)"
font-family="Sans Serif" font-size="9" font-weight="400" font-style="normal" 
>
</g>

<g fill="none" stroke="#000000" stroke-opacity="1" stroke-width="1" stroke-linecap="square" stroke-linejoin="bevel" transform="matrix(1.00313,0,0,1.00313,0,0)"
font-family="Sans Serif" font-size="9" font-weight="400" font-style="normal" 
>
</g>

<g fill="none" stroke="#000000" stroke-opacity="1" stroke-width="1" stroke-linecap="square" stroke-linejoin="bevel" transform="matrix(1.00313,0,0,1.00313,0,0)"
font-family="Sans Serif" font-size="9" font-weight="400" font-style="normal" 
>
</g>

<g fill="none" stroke="#9400d3" stroke-opacity="1" stroke-width="1" stroke-linecap="round" stroke-linejoin="round" transform="matrix(1.00313,0,0,1.00313,0,0)"
font-family="Sans Serif" font-size="9" font-weight="400" font-style="normal" 
>
<polyline fill="none" vector-effect="none" points="17.5,121.2 17.5,121.2 23.6,52.5 29.6,73.9 35.7,65.7 41.8,76.3 47.9,67.3 53.9,50.9 60,64.8 66.1,57.8 72.2,80.4 78.2,76.5 84.3,67.1 90.4,82.3 96.5,128 102.5,162.8 108.6,174 114.7,173 120.8,180.6 126.8,198.2 132.9,222.2 139,250.6 145.1,281.6 151.1,306.8 157.2,330.9 163.3,354.4 169.4,377.4 175.4,404.4 181.5,421.6 187.6,418.8 193.7,414.2 199.7,417.2 205.8,423 211.9,430.8 218,429.5 224,415.1 230.1,405.5 236.2,411.1 242.3,422.2 248.3,420.8 254.4,407.3 260.5,397.6 266.6,391.5 272.6,380.2 278.7,373 284.8,386.9 290.9,405.1 296.9,405.8 303,386.7 309.1,356.2 315.2,328.3 321.2,305.1 327.3,273.3 333.4,240.3 339.5,227.4 345.5,225.3 351.6,222.1 357.7,220.6 363.8,223.5 369.8,234.9 375.9,252.7 382,278.7 388.1,311.4 394.1,324.4 400.2,310.9 406.3,301.1 412.4,305.7 418.4,332.5 424.5,367.6 430.6,368 436.7,342.3 442.7,324.9 448.8,323.4 454.9,330.2 461,328.1 467,312.4 473.1,306.7 479.2,321.1 485.3,349.7 491.3,381.6 497.4,403.4 503.5,405.1 509.6,390.4 515.6,387.7 521.7,394.4 527.8,418.6 533.9,437.4 539.9,429.9 546,392.3 552.1,331.7 558.2,294.7 564.2,302.1 570.3,341.1 576.4,390.7 582.5,403.5 588.5,401.8 594.6,392.5 600.7,408.5 606.8,429.6 612.8,433.3 618.9,432.6 " />
</g>

<g fill="none" stroke="#000000" stroke-opacity="1" stroke-width="1" stroke-linecap="square" stroke-linejoin="bevel" transform="matrix(1.00313,0,0,1.00313,0,0)"
font-family="Sans Serif" font-size="9" font-weight="400" font-style="normal" 
>
</g>

<g fill="none" stroke="#000000" stroke-opacity="1" stroke-width="1" stroke-linecap="square" stroke-linejoin="bevel" transform="matrix(1,0,0,1,0,0)"
font-family="Sans Serif" font-size="9" font-weight="400" font-style="normal" 
>
</g>
</g>
</svg>
