<?xml version="1.0" encoding="UTF-8" standalone="no"?>
<svg width="226.483mm" height="170.039mm"
 viewBox="0 0 642 482"
 xmlns="http://www.w3.org/2000/svg" xmlns:xlink="http://www.w3.org/1999/xlink"  version="1.2" baseProfile="tiny">
<title>Qt SVG Document</title>
<desc>Generated with Qt</desc>
<defs>
</defs>
<g fill="none" stroke="black" stroke-width="1" fill-rule="evenodd" stroke-linecap="square" stroke-linejoin="bevel" >

<g fill="none" stroke="#000000" stroke-opacity="1" stroke-width="1" stroke-linecap="square" stroke-linejoin="bevel" transform="matrix(1,0,0,1,0,0)"
font-family="Sans Serif" font-size="9" font-weight="400" font-style="normal" 
>
</g>

<g fill="none" stroke="#000000" stroke-opacity="1" stroke-width="1" stroke-linecap="square" stroke-linejoin="bevel" transform="matrix(1.00313,0,0,1.00313,0,0)"
font-family="Sans Serif" font-size="9" font-weight="400" font-style="normal" 
>
</g>

<g fill="none" stroke="#000000" stroke-opacity="1" stroke-width="1" stroke-linecap="square" stroke-linejoin="bevel" transform="matrix(1.00313,0,0,1.00313,0,0)"
font-family="Sans Serif" font-size="9" font-weight="400" font-style="normal" 
>
</g>

<g fill="none" stroke="#000000" stroke-opacity="1" stroke-width="1" stroke-linecap="square" stroke-linejoin="bevel" transform="matrix(1.00313,0,0,1.00313,0,0)"
font-family="Sans Serif" font-size="9" font-weight="400" font-style="normal" 
>
</g>

<g fill="none" stroke="#9400d3" stroke-opacity="1" stroke-width="1" stroke-linecap="round" stroke-linejoin="round" transform="matrix(1.00313,0,0,1.00313,0,0)"
font-family="Sans Serif" font-size="9" font-weight="400" font-style="normal" 
>
<polyline fill="none" vector-effect="none" points="17.5,29.4 17.5,29.4 23.6,37 29.6,28.5 35.7,46.2 41.8,67.8 47.9,84 53.9,87 60,90.5 66.1,97.4 72.2,100.9 78.2,101.9 84.3,98.6 90.4,109.1 96.5,116.9 102.5,114.2 108.6,112.1 114.7,104.1 120.8,92.1 126.8,78.3 132.9,69.7 139,69.3 145.1,80.9 151.1,103.1 157.2,118.2 163.3,124.1 169.4,136.1 175.4,146.7 181.5,147.7 187.6,145.4 193.7,147.1 199.7,150.5 205.8,154.2 211.9,160.9 218,162.9 224,160.8 230.1,163.1 236.2,174.1 242.3,188 248.3,190.3 254.4,184.8 260.5,190.1 266.6,205 272.6,217.8 278.7,225.5 284.8,227.2 290.9,223.6 296.9,221 303,221.2 309.1,219.1 315.2,212.9 321.2,208.3 327.3,212.5 333.4,221.2 339.5,229.1 345.5,236.8 351.6,236.7 357.7,231.5 363.8,230 369.8,233.3 375.9,241.5 382,249.4 388.1,252 394.1,250.5 400.2,251.9 406.3,258 412.4,265.3 418.4,271.3 424.5,269.9 430.6,266.1 436.7,272.2 442.7,280.5 448.8,286.4 454.9,297.7 461,309.1 467,314.5 473.1,318.5 479.2,328.9 485.3,340.9 491.3,341 497.4,330.6 503.5,328.9 509.6,339.3 515.6,349.4 521.7,351.2 527.8,350.8 533.9,348.6 539.9,348.6 546,355.8 552.1,359.6 558.2,361.8 564.2,368.7 570.3,379.8 576.4,385.9 582.5,388.9 588.5,391.6 594.6,407.9 600.7,435.6 606.8,440.4 612.8,439.7 618.9,466 " />
</g>

<g fill="none" stroke="#000000" stroke-opacity="1" stroke-width="1" stroke-linecap="square" stroke-linejoin="bevel" transform="matrix(1.00313,0,0,1.00313,0,0)"
font-family="Sans Serif" font-size="9" font-weight="400" font-style="normal" 
>
</g>

<g fill="none" stroke="#000000" stroke-opacity="1" stroke-width="1" stroke-linecap="square" stroke-linejoin="bevel" transform="matrix(1,0,0,1,0,0)"
font-family="Sans Serif" font-size="9" font-weight="400" font-style="normal" 
>
</g>
</g>
</svg>
