<?xml version="1.0" encoding="UTF-8" standalone="no"?>
<svg width="226.483mm" height="170.039mm"
 viewBox="0 0 642 482"
 xmlns="http://www.w3.org/2000/svg" xmlns:xlink="http://www.w3.org/1999/xlink"  version="1.2" baseProfile="tiny">
<title>Qt SVG Document</title>
<desc>Generated with Qt</desc>
<defs>
</defs>
<g fill="none" stroke="black" stroke-width="1" fill-rule="evenodd" stroke-linecap="square" stroke-linejoin="bevel" >

<g fill="none" stroke="#000000" stroke-opacity="1" stroke-width="1" stroke-linecap="square" stroke-linejoin="bevel" transform="matrix(1,0,0,1,0,0)"
font-family="Sans Serif" font-size="9" font-weight="400" font-style="normal" 
>
</g>

<g fill="none" stroke="#000000" stroke-opacity="1" stroke-width="1" stroke-linecap="square" stroke-linejoin="bevel" transform="matrix(1.00313,0,0,1.00313,0,0)"
font-family="Sans Serif" font-size="9" font-weight="400" font-style="normal" 
>
</g>

<g fill="none" stroke="#000000" stroke-opacity="1" stroke-width="1" stroke-linecap="square" stroke-linejoin="bevel" transform="matrix(1.00313,0,0,1.00313,0,0)"
font-family="Sans Serif" font-size="9" font-weight="400" font-style="normal" 
>
</g>

<g fill="none" stroke="#000000" stroke-opacity="1" stroke-width="1" stroke-linecap="square" stroke-linejoin="bevel" transform="matrix(1.00313,0,0,1.00313,0,0)"
font-family="Sans Serif" font-size="9" font-weight="400" font-style="normal" 
>
</g>

<g fill="none" stroke="#9400d3" stroke-opacity="1" stroke-width="1" stroke-linecap="round" stroke-linejoin="round" transform="matrix(1.00313,0,0,1.00313,0,0)"
font-family="Sans Serif" font-size="9" font-weight="400" font-style="normal" 
>
<polyline fill="none" vector-effect="none" points="17.5,272.4 17.5,272.4 23.6,261.9 29.6,252.1 35.7,238.6 41.8,225.5 47.9,256.5 53.9,287.3 60,298.7 66.1,303 72.2,305.2 78.2,298.9 84.3,284.5 90.4,278.9 96.5,283.7 102.5,291 108.6,301.4 114.7,316.7 120.8,332.1 126.8,338.9 132.9,332.6 139,318.2 145.1,307.2 151.1,307 157.2,316.2 163.3,327.7 169.4,335 175.4,336.8 181.5,337.5 187.6,343.3 193.7,355.4 199.7,368.6 205.8,377.1 211.9,380.2 218,381 224,382.4 230.1,383.7 236.2,381.8 242.3,374.8 248.3,363.6 254.4,352.3 260.5,347.5 266.6,353.8 272.6,369 278.7,383.4 284.8,388.4 290.9,383.2 296.9,374 303,367.2 309.1,364 315.2,362.1 321.2,358.9 327.3,355 333.4,351.4 339.5,346.7 345.5,338.3 351.6,326.1 357.7,313.3 363.8,302.5 369.8,293.7 375.9,286.1 382,279.9 388.1,274.3 394.1,264.6 400.2,245.6 406.3,217.6 412.4,186.5 418.4,158.9 424.5,137.7 430.6,121.4 436.7,107.2 442.7,95.2 448.8,90.1 454.9,96.8 461,114.4 467,134.9 473.1,149.1 479.2,152.6 485.3,147.4 491.3,137.9 497.4,128.3 503.5,123.1 509.6,126.3 515.6,137 521.7,149.5 527.8,156.4 533.9,151.1 539.9,132.8 546,112.7 552.1,101.5 558.2,89.7 564.2,67.2 570.3,47.7 576.4,50.4 582.5,76.3 588.5,108.3 594.6,126.7 600.7,105.6 606.8,55.1 612.8,51 618.9,39.9 " />
</g>

<g fill="none" stroke="#000000" stroke-opacity="1" stroke-width="1" stroke-linecap="square" stroke-linejoin="bevel" transform="matrix(1.00313,0,0,1.00313,0,0)"
font-family="Sans Serif" font-size="9" font-weight="400" font-style="normal" 
>
</g>

<g fill="none" stroke="#000000" stroke-opacity="1" stroke-width="1" stroke-linecap="square" stroke-linejoin="bevel" transform="matrix(1,0,0,1,0,0)"
font-family="Sans Serif" font-size="9" font-weight="400" font-style="normal" 
>
</g>
</g>
</svg>
