<?xml version="1.0" encoding="UTF-8" standalone="no"?>
<svg width="226.483mm" height="170.039mm"
 viewBox="0 0 642 482"
 xmlns="http://www.w3.org/2000/svg" xmlns:xlink="http://www.w3.org/1999/xlink"  version="1.2" baseProfile="tiny">
<title>Qt SVG Document</title>
<desc>Generated with Qt</desc>
<defs>
</defs>
<g fill="none" stroke="black" stroke-width="1" fill-rule="evenodd" stroke-linecap="square" stroke-linejoin="bevel" >

<g fill="none" stroke="#000000" stroke-opacity="1" stroke-width="1" stroke-linecap="square" stroke-linejoin="bevel" transform="matrix(1,0,0,1,0,0)"
font-family="Sans Serif" font-size="9" font-weight="400" font-style="normal" 
>
</g>

<g fill="none" stroke="#000000" stroke-opacity="1" stroke-width="1" stroke-linecap="square" stroke-linejoin="bevel" transform="matrix(1.00313,0,0,1.00313,0,0)"
font-family="Sans Serif" font-size="9" font-weight="400" font-style="normal" 
>
</g>

<g fill="none" stroke="#000000" stroke-opacity="1" stroke-width="1" stroke-linecap="square" stroke-linejoin="bevel" transform="matrix(1.00313,0,0,1.00313,0,0)"
font-family="Sans Serif" font-size="9" font-weight="400" font-style="normal" 
>
</g>

<g fill="none" stroke="#000000" stroke-opacity="1" stroke-width="1" stroke-linecap="square" stroke-linejoin="bevel" transform="matrix(1.00313,0,0,1.00313,0,0)"
font-family="Sans Serif" font-size="9" font-weight="400" font-style="normal" 
>
</g>

<g fill="none" stroke="#9400d3" stroke-opacity="1" stroke-width="1" stroke-linecap="round" stroke-linejoin="round" transform="matrix(1.00313,0,0,1.00313,0,0)"
font-family="Sans Serif" font-size="9" font-weight="400" font-style="normal" 
>
<polyline fill="none" vector-effect="none" points="17.5,174.5 17.5,174.5 23.6,160.6 29.6,139.1 35.7,128.6 41.8,125.5 47.9,119.7 53.9,112.1 60,101.6 66.1,85.3 72.2,65.3 78.2,52.3 84.3,38.9 90.4,30.9 96.5,37.5 102.5,45.4 108.6,51.6 114.7,66.5 120.8,85 126.8,96.2 132.9,98.9 139,97.6 145.1,92.9 151.1,82.9 157.2,72.8 163.3,68.7 169.4,71.6 175.4,79.1 181.5,89.1 187.6,99.7 193.7,106.9 199.7,109.1 205.8,110.3 211.9,112.9 218,115.4 224,118 230.1,122.9 236.2,129.8 242.3,138.3 248.3,149.2 254.4,161.4 260.5,173.5 266.6,183.3 272.6,185.5 278.7,179.8 284.8,176.1 290.9,183.6 296.9,201.2 303,219.7 309.1,232.9 315.2,241.4 321.2,249.1 327.3,257.6 333.4,264.6 339.5,267.7 345.5,268 351.6,267.9 357.7,268.6 363.8,271.2 369.8,277 375.9,283.4 382,285.9 388.1,281.4 394.1,273.6 400.2,269.5 406.3,270.3 412.4,273.8 418.4,280.4 424.5,289.6 430.6,296.9 436.7,298 442.7,293.6 448.8,287.4 454.9,280.1 461,270.5 467,264.8 473.1,268 479.2,274.8 485.3,282.9 491.3,295.4 497.4,311.3 503.5,326.7 509.6,337.6 515.6,342.9 521.7,341.6 527.8,336.7 533.9,333.6 539.9,334.3 546,343.3 552.1,362.7 558.2,387.5 564.2,409.8 570.3,426.7 576.4,442.9 582.5,454.6 588.5,451.8 594.6,447.8 600.7,448.4 606.8,442.4 612.8,422.9 618.9,407.7 " />
</g>

<g fill="none" stroke="#000000" stroke-opacity="1" stroke-width="1" stroke-linecap="square" stroke-linejoin="bevel" transform="matrix(1.00313,0,0,1.00313,0,0)"
font-family="Sans Serif" font-size="9" font-weight="400" font-style="normal" 
>
</g>

<g fill="none" stroke="#000000" stroke-opacity="1" stroke-width="1" stroke-linecap="square" stroke-linejoin="bevel" transform="matrix(1,0,0,1,0,0)"
font-family="Sans Serif" font-size="9" font-weight="400" font-style="normal" 
>
</g>
</g>
</svg>
