<?xml version="1.0" encoding="UTF-8" standalone="no"?>
<svg width="226.483mm" height="170.039mm"
 viewBox="0 0 642 482"
 xmlns="http://www.w3.org/2000/svg" xmlns:xlink="http://www.w3.org/1999/xlink"  version="1.2" baseProfile="tiny">
<title>Qt SVG Document</title>
<desc>Generated with Qt</desc>
<defs>
</defs>
<g fill="none" stroke="black" stroke-width="1" fill-rule="evenodd" stroke-linecap="square" stroke-linejoin="bevel" >

<g fill="none" stroke="#000000" stroke-opacity="1" stroke-width="1" stroke-linecap="square" stroke-linejoin="bevel" transform="matrix(1,0,0,1,0,0)"
font-family="Sans Serif" font-size="9" font-weight="400" font-style="normal" 
>
</g>

<g fill="none" stroke="#000000" stroke-opacity="1" stroke-width="1" stroke-linecap="square" stroke-linejoin="bevel" transform="matrix(1.00313,0,0,1.00313,0,0)"
font-family="Sans Serif" font-size="9" font-weight="400" font-style="normal" 
>
</g>

<g fill="none" stroke="#000000" stroke-opacity="1" stroke-width="1" stroke-linecap="square" stroke-linejoin="bevel" transform="matrix(1.00313,0,0,1.00313,0,0)"
font-family="Sans Serif" font-size="9" font-weight="400" font-style="normal" 
>
</g>

<g fill="none" stroke="#000000" stroke-opacity="1" stroke-width="1" stroke-linecap="square" stroke-linejoin="bevel" transform="matrix(1.00313,0,0,1.00313,0,0)"
font-family="Sans Serif" font-size="9" font-weight="400" font-style="normal" 
>
</g>

<g fill="none" stroke="#9400d3" stroke-opacity="1" stroke-width="1" stroke-linecap="round" stroke-linejoin="round" transform="matrix(1.00313,0,0,1.00313,0,0)"
font-family="Sans Serif" font-size="9" font-weight="400" font-style="normal" 
>
<polyline fill="none" vector-effect="none" points="17.5,377.5 17.5,377.5 23.6,383.3 29.6,386.1 35.7,382.8 41.8,376.9 47.9,331 53.9,342.6 60,373.9 66.1,402.6 72.2,417.4 78.2,428 84.3,425.6 90.4,421.4 96.5,432.1 102.5,446.9 108.6,430.5 114.7,404.3 120.8,386.3 126.8,374.9 132.9,386.3 139,395.1 145.1,380 151.1,359.5 157.2,356.4 163.3,364 169.4,376.4 175.4,400.5 181.5,425.7 187.6,431.2 193.7,426.3 199.7,412.2 205.8,396.7 211.9,400.7 218,409.4 224,413 230.1,416.6 236.2,412.3 242.3,396.5 248.3,376.2 254.4,351.9 260.5,333 266.6,315.8 272.6,295 278.7,280 284.8,278.1 290.9,275.8 296.9,263.8 303,249.4 309.1,233.4 315.2,214.5 321.2,203.1 327.3,205.8 333.4,207.9 339.5,201.1 345.5,188.8 351.6,170.3 357.7,152.6 363.8,143.4 369.8,137 375.9,139.2 382,153.6 388.1,156.2 394.1,141.7 400.2,136.7 406.3,145.3 412.4,161.8 418.4,190.8 424.5,215.8 430.6,217.1 436.7,200.6 442.7,183.1 448.8,168.2 454.9,146 461,129.5 467,120.4 473.1,105.3 479.2,87.5 485.3,83.6 491.3,97.9 497.4,92.8 503.5,72.8 509.6,72.4 515.6,91.4 521.7,108.6 527.8,107.5 533.9,105.8 539.9,102.8 546,87.7 552.1,89.2 558.2,99.8 564.2,95.3 570.3,86 576.4,76.5 582.5,41.2 588.5,27.1 594.6,26.8 600.7,54.2 606.8,54.8 612.8,79.9 618.9,114.7 " />
</g>

<g fill="none" stroke="#000000" stroke-opacity="1" stroke-width="1" stroke-linecap="square" stroke-linejoin="bevel" transform="matrix(1.00313,0,0,1.00313,0,0)"
font-family="Sans Serif" font-size="9" font-weight="400" font-style="normal" 
>
</g>

<g fill="none" stroke="#000000" stroke-opacity="1" stroke-width="1" stroke-linecap="square" stroke-linejoin="bevel" transform="matrix(1,0,0,1,0,0)"
font-family="Sans Serif" font-size="9" font-weight="400" font-style="normal" 
>
</g>
</g>
</svg>
